<svg width="16" height="16" viewBox="0 0 16 16" fill="none" xmlns="http://www.w3.org/2000/svg">
<path fill-rule="evenodd" clip-rule="evenodd" d="M8 2.66663C4.66666 2.66663 1.82 4.73996 0.666664 7.66663C1.82 10.5933 4.66666 12.6666 8 12.6666C11.3333 12.6666 14.18 10.5933 15.3333 7.66663C14.18 4.73996 11.3333 2.66663 8 2.66663ZM8 11C6.16 11 4.66666 9.50663 4.66666 7.66663C4.66666 5.82663 6.16 4.33329 8 4.33329C9.84 4.33329 11.3333 5.82663 11.3333 7.66663C11.3333 9.50663 9.84 11 8 11ZM6 7.66663C6 6.55996 6.89333 5.66663 8 5.66663C9.10666 5.66663 10 6.55996 10 7.66663C10 8.77329 9.10666 9.66663 8 9.66663C6.89333 9.66663 6 8.77329 6 7.66663Z" fill="#9C9C9C"/>
</svg>
